<?xml version="1.0" standalone="yes"?>
<svg xmlns="http://www.w3.org/2000/svg" stroke="none" style="zoom: 1.25;" fill="currentColor" height="16" width="16">
  <path xmlns="http://www.w3.org/2000/svg" d="M8,0 A8,8 0 0 0 0,8 A8,8 8 0 0 8,16 A8,8 16 0 0 16,8 A8,8 8 0 0 8,0 M14.968,9.508 c-.066,.065 -.128,.133 -.218,.226 c.129,.772 -.377,1.23 -.931,1.658 c-.578,.446 -1.156,.892 -1.74,1.329 c-.131,.097 -.29,.156 -.438,.233 c-.364,1.006 -.502,1.13 -1.274,1.112 c-.184,.497 -.551,.694 -1.085,.554 c-.035,-.01 -.09,-.04 -.102,-.028 c-.518,.533 -1.114,.122 -1.654,.087 c-.4,-.026 -.804,-.283 -1.164,-.505 c-.304,-.188 -.52,-.534 -.952,-.434 a.074,.074 0 0 1 -.054,-.01 c-.416,-.302 -.92,-.116 -1.343,-.23 c-.548,-.147 -1.035,-.53 -1.537,-.831 c-.076,-.046 -.09,-.195 -.129,-.299 c-.025,-.069 -.026,-.19 -.066,-.204 c-.548,-.187 -.527,-.708 -.709,-1.125 c-.169,-.388 -.286,-.735 -.072,-1.138 a.472,.472 0 0 0 .006,-.357 c-.277,-.66 -.283,-.658 -.215,-1.315 c-.567,-.483 -.65,-.85 -.19,-1.432 c-.184,-.418 -.277,-.84 .227,-1.143 c.038,-.023 .05,-.096 .064,-.149 c.164,-.645 .652,-1.051 1.164,-1.368 c.469,-.291 1.04,-.364 1.35,-.951 c.115,-.22 .473,-.348 .545,-.682 c.017,-.08 .105,-.157 .18,-.207 c.369,-.247 .8,-.374 1.138,-.708 c.142,-.14 .538,-.023 .913,-.023 c.5,-.623 1.185,-.117 1.818,-.036 c.299,.038 .567,.305 .855,.455 c.127,.066 .27,.109 .409,.143 c.088,.022 .196,-.019 .275,.016 c.444,.192 .886,.318 1.369,.131 c.066,-.025 .214,.025 .252,.086 c.31,.496 .94,.336 1.32,.658 c.109,.093 .126,.293 .2,.482 c.364,.119 .76,.262 .664,.806 c.39,.24 .135,.747 .425,1.028 c-.306,.67 .408,1.228 .208,1.932 c.095,.066 .238,.126 .323,.233 c.12,.153 .325,.42 .274,.501 c-.311,.497 .363,1.044 -.106,1.505 M7.844,3.436 c-.739,.273 -.748,.286 -.583,.949 c-.359,.16 -.576,.42 -.386,.855 c.024,.056 .01,.16 -.03,.205 c-.17,.2 -.137,.384 -.049,.614 c.048,.127 -.047,.31 -.077,.464 c.158,.217 .33,.424 .464,.653 c.05,.086 .063,.28 .011,.32 a.402,.402 0 0 1 -.347,.042 c-.387,-.168 -.793,-.322 -1.127,-.569 c-.262,-.193 -.445,-.504 -.631,-.784 c-.136,-.205 -.22,-.443 -.378,-.77 c.035,-.07 .126,-.243 .208,-.42 c.058,-.124 .176,-.281 .14,-.377 c-.104,-.28 .096,-.497 .1,-.726 c.012,-.593 .667,-.713 .786,-1.2 c.634,-.278 1.22,-.738 1.986,-.51 c.119,.035 .249,.033 .357,.046 c.138,.279 -.01,.433 -.15,.617 c-.128,.168 -.194,.383 -.294,.59 m4.589,.516 c.28,.248 .495,.44 .74,.655 l.195,.867 l-.112,.089 c-.492,-.321 -1.117,.035 -1.593,-.382 c-.036,-.032 -.108,-.042 -.16,-.034 c-.476,.073 -.976,.083 -1.422,.243 c-.84,.302 -1.61,.747 -2.147,1.611 c-.367,-.39 -.364,-.79 -.28,-1.186 c.082,-.383 .218,-.754 .34,-1.163 c.465,.006 .444,-.43 .571,-.689 c1.035,-.397 2.03,-.831 3.2,-.419 c.111,.257 .326,.524 .668,.408 m-4.476,4.531 c.413,.894 .114,1.677 -.258,2.416 c-.16,.21 -.32,.418 -.477,.63 c-.044,.058 -.081,.176 -.121,.176 c-.557,-.002 -.89,.552 -1.475,.546 c-.47,-.004 -.918,.085 -1.4,-.079 a3.642,3.642 0 0 1 -1.43,-.897 c-.344,-.34 -.434,-.67 -.31,-1.111 h1.127 c.27,.33 .652,.51 1.146,.216 c.081,-.049 .21,-.011 .316,-.024 c.214,-.027 .43,-.049 .64,-.096 c.207,-.047 .407,-.124 .61,-.188 c.07,-.021 .161,-.02 .208,-.065 c.295,-.284 .585,-.574 .867,-.871 c.177,-.188 .335,-.392 .557,-.653 m-4.56,-3.953 c-.053,.463 .004,.825 .439,1.05 c-.17,.48 -.203,.902 .388,1.073 c.033,.01 .084,.038 .086,.06 c.044,.528 .506,.583 .844,.816 c.54,.372 1.08,.61 1.743,.531 c.108,-.012 .225,.042 .348,.068 c-.067,.532 -.47,.782 -.8,.899 c-.622,.222 -1.255,.63 -1.986,.274 c-.14,-.068 -.356,.02 -.479,.032 c-.762,-.354 -1.128,-1.088 -1.767,-1.56 c.03,-.33 .276,-.718 -.143,-.942 c.103,-1.008 .464,-1.798 1.327,-2.301 m9.281,6.782 c-.07,-.19 -.182,-.336 -.16,-.456 c.071,-.367 -.073,-.61 -.39,-.81 c.146,-.449 -.008,-.777 -.409,-1.016 a.454,.454 0 0 1 -.18,-.303 c-.036,-.31 -.199,-.46 -.497,-.497 c-.089,-.011 -.211,-.026 -.254,-.086 c-.431,-.595 -1.1,-.585 -1.722,-.693 c-.15,-.026 -.3,-.047 -.467,-.072 c.046,-.535 .476,-.69 .755,-.793 c.64,-.235 1.336,-.555 2.02,-.264 c.544,.233 1.214,.272 1.574,.882 c.11,.188 .365,.29 .552,.431 l.343,1.055 v1.096 c-.292,.443 -.515,1.055 -1.165,1.526 m-6.337,1.87 c1.043,.015 1.154,-.053 1.389,-.821 c.444,-.148 .826,-.38 .831,-.948 c0,-.07 .108,-.138 .166,-.207 c.07,-.084 .19,-.161 .201,-.252 c.082,-.678 .228,-1.36 -.009,-2.036 c-.094,-.268 -.2,-.532 -.34,-.905 c.273,.028 .455,.01 .609,.068 c.657,.24 1.182,.681 1.593,1.227 c.194,.257 .245,.621 .392,1.022 c-.162,.237 -.237,.582 .062,.932 c-.394,.319 -.599,.694 -.535,1.13 l-.96,.922 l-.836,.372 c-.264,.05 -.522,.122 -.784,.14 c-.252,.018 -.558,.064 -.751,-.051 c-.322,-.192 -.838,-.047 -1.028,-.592  z "></path>
</svg>
