<?xml version="1.0" encoding="UTF-8" standalone="yes"?>
<svg xmlns="http://www.w3.org/2000/svg" xmlns:xlink="http://www.w3.org/1999/xlink" xmlns:sketch="http://www.bohemiancoding.com/sketch/ns" width="32px" height="32px" viewBox="0 0 32 32" style="zoom: 0.8;" version="1.1">
  <!-- Generator: Sketch 3.2.2 (9983) - http://www.bohemiancoding.com/sketch -->
  <title>Codementor</title>
  <desc>Codementor</desc>
  <defs>
    <filter x="-50%" y="-50%" width="200%" height="200%" filterUnits="objectBoundingBox" id="filter-1">
      <feOffset dx="0.5" dy="0.5" in="SourceAlpha" result="shadowOffsetOuter1"></feOffset>
      <feGaussianBlur stdDeviation="0.5" in="shadowOffsetOuter1" result="shadowBlurOuter1"></feGaussianBlur>
      <feColorMatrix values="0 0 0 0 0 0 0 0 0 0 0 0 0 0 0 0 0 0 0.353408062 0" in="shadowBlurOuter1" type="matrix" result="shadowMatrixOuter1"></feColorMatrix>
      <feMerge>
        <feMergeNode in="shadowMatrixOuter1"></feMergeNode>
        <feMergeNode in="SourceGraphic"></feMergeNode>
      </feMerge>
    </filter>
    <rect id="path-2" x="0" y="0" width="106" height="45" rx="5"></rect>
  </defs>
  <g id="Page-1" stroke="none" stroke-width="1" fill="none" fill-rule="evenodd" sketch:type="MSPage">
    <g id="Badge-for-Mentor-Blue-6" sketch:type="MSLayerGroup">
      <g id="Logo" transform="translate(2,7)" sketch:type="MSShapeGroup">
        <rect x="3.2" stroke="currentColor" height="14.7272727" id="Rectangle-29" stroke-width="1.66007022" width="20.8" y="0" rx="2.49010533"></rect>
        <path d="M0,15.5454545 L28,15.5454545 L28,16.7727273 C28,17.4505313 27.4444313,18 26.7702115,18 L1.23010167,18 L1.22041701,18 C0.546399308,18 0,17.4552568 0,16.7727273 L0,15.5454545  Z " id="Rectangle-27" fill="currentColor"></path>
        <path d="M6.55853047,3.68181818 L10.8,3.68181818 " id="Line-6" stroke="currentColor" stroke-linecap="square" stroke-width="0.83003511"></path>
        <path d="M6.55853047,6.13636364 L10.8,6.13636364 " id="Line-7" stroke="currentColor" stroke-linecap="square" stroke-width="0.83003511"></path>
        <path d="M6.55853047,8.59090909 L10.8,8.59090909 " id="Line-8" stroke="currentColor" stroke-linecap="square" stroke-width="0.83003511"></path>
        <path d="M6.55853047,11.0454545 L10.8,11.0454545 " id="Line-9" stroke="currentColor" stroke-linecap="square" stroke-width="0.83003511"></path>
        <path d="M6.55853047,3.68181818 L10.8,3.68181818 " id="Line-10" stroke="currentColor" stroke-linecap="square" stroke-width="0.83003511"></path>
        <ellipse id="Oval-13" cy="4.90909091" fill="currentColor" rx="2.4" cx="16.8" ry="2.45454545"></ellipse>
        <path d="M12.1599609,9.84694544 C12.1599609,8.47545171 13.1892413,6.93889159 14.1131836,6.80323375 C14.1131836,6.80323375 13.096982,6.80323375 14.1131836,6.80323375 C14.3312999,6.80323375 14.676615,6.80787253 14.7948242,6.89786599 C14.9799896,7.03883357 15.1787726,7.29757046 15.7092773,7.55964244 C16.0224524,7.71435245 16.6562573,7.78501199 16.7640625,7.78501199 C17.2234153,7.78501199 17.5757576,7.75903424 17.9024902,7.55964244 C18.320686,7.30443435 18.7182213,6.97504955 19.0775879,6.80323375 C19.2316255,6.72958725 19.4645612,6.76204304 19.4862056,6.76453505 C19.6908314,6.78809454 19.7597168,6.80323375 19.7597168,6.80323375 C19.7599193,6.80388246 19.7597168,6.80323375 19.7597168,6.80323375 C20.8644211,7.11273557 21.7599609,8.47758508 21.7599609,9.84694544 L21.7599609,10.610733 C21.7599609,11.5286271 21.0226054,12.2727273 20.1096621,12.2727273 L13.8102598,12.2727273 C12.8988249,12.2727273 12.1599609,11.527142 12.1599609,10.610733 L12.1599609,9.84694544  Z " id="Rectangle-28" fill="currentColor"></path>
      </g>
    </g>
  </g>
</svg>
